<svg width="498" height="309" viewBox="0 0 498 309" fill="none" xmlns="http://www.w3.org/2000/svg">
<path d="M245.543 0.000445485C231.985 0.0261855 224.896 1.11805 213.412 4.95161C206.458 7.27293 196.458 12.1938 193.412 14.7934C192.2 15.8275 189.11 18.1478 186.543 19.9497C175.454 27.734 163.527 42.1949 157.654 54.977C155.023 60.7027 152.324 68.4599 152.332 70.27C152.334 70.82 151.673 75.0187 150.863 79.602C148.975 90.292 149.244 105.45 151.473 113.936C153.277 120.808 155.569 126.999 156.17 126.627C156.172 126.626 156.177 126.624 156.18 126.623C156.477 126.562 158.1 129.512 159.824 133.26C161.576 137.068 163.586 140.706 164.291 141.344C165.267 142.227 165.026 141.301 163.281 137.473C159.546 129.277 155.45 114.713 155.59 110.131C155.634 108.684 155.666 108.673 156.209 109.936C156.567 110.767 156.841 107.13 156.938 100.27L157.094 89.2699L157.557 97.9359C158.032 106.82 159.533 114.804 161.209 117.362C161.729 118.154 163.49 121.843 165.125 125.559C168.701 133.685 171.005 137.366 176.983 144.514C179.477 147.496 181.523 150.389 181.53 150.942C181.557 153.135 187.55 160.955 194.199 167.477C208.778 181.776 223.33 188.668 244.912 191.494C254.992 192.814 257.954 192.736 268.877 190.858C287.86 187.593 304.62 179.213 318.727 165.934C332.381 153.081 341.579 136.999 346.049 118.166C347.698 111.222 347.847 109.455 347.862 96.6019C347.874 85.5682 347.62 81.4019 346.668 76.9359C345.139 69.7622 341.199 57.7842 339.653 55.6019C339.003 54.6852 337.017 51.3251 335.239 48.1332C325.963 31.4865 311.464 17.6523 294.912 9.6566C291.815 8.16041 288.814 6.93118 288.244 6.92418C287.675 6.91818 284.419 6.0318 281.008 4.95543C269.811 1.42152 259.446 -0.0259445 245.543 0.000445485ZM248.555 22.5219C248.568 22.5215 248.583 22.5211 248.598 22.5219C248.703 22.5279 248.824 22.5701 248.951 22.6489C250.15 23.39 256.877 23.7049 256.877 23.02C256.877 22.238 259.717 22.9085 260.326 23.8344C260.628 24.2921 261.074 24.2688 261.682 23.7641C262.198 23.3359 262.969 23.2478 263.473 23.5591C263.959 23.8598 264.89 23.9657 265.541 23.7954C266.192 23.625 266.959 23.8638 267.244 24.3247C267.598 24.8971 267.443 25.0407 266.758 24.7778C266.206 24.5661 265.41 24.6053 264.988 24.8657C264.567 25.1261 267.146 26.1609 270.717 27.1645C278.162 29.2569 285.989 32.5045 291.322 35.7153C299.456 40.6123 312.263 56.0022 311.615 60.102C311.543 60.5604 312.022 60.9398 312.68 60.9458C313.563 60.9538 313.651 61.0992 313.012 61.5044C312.303 61.954 312.303 62.1774 313.012 62.7388C313.487 63.1155 314.291 63.5522 314.799 63.7095C315.54 63.9393 315.498 64.2175 314.584 65.1313C313.513 66.2027 313.513 66.27 314.606 66.27C315.243 66.27 315.587 66.4472 315.369 66.6645C315.152 66.8819 315.851 69.5075 316.922 72.4985C317.993 75.4895 318.871 78.893 318.873 80.063C318.875 81.233 319.204 82.3932 319.606 82.6411C320.007 82.8891 320.198 83.8065 320.031 84.6802C319.847 85.6443 320.045 86.27 320.533 86.27C321.52 86.27 321.539 106.696 320.553 108.268C320.208 108.818 320.009 110.063 320.111 111.036C320.213 112.008 319.976 113.001 319.586 113.243C319.195 113.484 318.877 114.563 318.877 115.641C318.877 116.719 318.276 118.203 317.543 118.936C316.81 119.669 316.209 120.709 316.209 121.247C316.209 122.6 314.084 126.936 313.42 126.936C313.121 126.936 312.877 127.511 312.877 128.213C312.877 128.916 312.638 129.591 312.348 129.713C311.665 130.001 308.326 134.431 306.947 136.879C305.499 139.451 302.446 142.936 301.641 142.936C301.281 142.936 300.589 143.836 300.102 144.936C299.615 146.036 298.99 146.936 298.713 146.936C298.436 146.936 298.209 147.235 298.209 147.602C298.209 149.054 300.237 148.145 301.922 145.936C302.901 144.653 304.081 143.602 304.545 143.602C305.009 143.602 305.553 142.972 305.754 142.202C305.955 141.431 306.4 140.974 306.742 141.186C307.085 141.398 307.895 140.986 308.543 140.27C309.191 139.554 309.998 139.139 310.336 139.348C310.674 139.557 310.32 140.374 309.549 141.165C308.777 141.955 306.516 144.328 304.525 146.436C302.534 148.544 300.702 150.27 300.453 150.27C300.205 150.27 298.935 151.094 297.631 152.102C296.327 153.11 294.2 154.601 292.902 155.415C291.605 156.228 290.993 156.895 291.543 156.895C293.209 156.895 306.877 147.446 306.877 146.293C306.877 145.999 307.476 145.6 308.209 145.409C308.942 145.217 309.543 145.186 309.543 145.34C309.543 146.229 306.407 150.255 305.709 150.262C305.251 150.267 304.877 150.712 304.877 151.252C304.877 151.793 304.028 152.674 302.992 153.209C301.956 153.745 300.082 155.152 298.826 156.336C297.57 157.521 293.692 159.798 290.209 161.397C286.726 162.996 283.427 164.598 282.877 164.957C281.496 165.86 281.314 165.915 274.473 167.516C271.134 168.297 267.742 168.936 266.934 168.936C266.125 168.936 265.633 169.209 265.84 169.543C266.267 170.234 264.941 170.148 263.756 169.407C263.323 169.136 262.795 169.194 262.584 169.536C262.373 169.877 262.578 170.307 263.039 170.493C263.5 170.678 262.376 170.872 260.543 170.924C258.71 170.976 253.91 171.121 249.877 171.247C242.506 171.476 231.441 170.081 230.986 168.864C230.864 168.537 229.964 168.26 228.986 168.248C228.009 168.237 226.628 167.787 225.916 167.248C225.204 166.71 224.065 166.27 223.385 166.27C222.705 166.27 221.438 165.557 220.568 164.688C219.699 163.819 218.279 162.931 217.412 162.713C216.546 162.496 214.796 161.395 213.523 160.266C202.62 150.596 201.22 149.258 197.588 145.036C195.963 143.147 194.388 141.602 194.088 141.602C192.836 141.602 193.69 143.85 195.689 145.821C196.87 146.984 197.751 148.334 197.648 148.821C197.546 149.308 198.076 149.866 198.828 150.063C199.58 150.26 200.029 150.688 199.826 151.016C199.624 151.344 199.927 152.081 200.5 152.655C201.684 153.839 201.866 154.936 200.877 154.936C200.51 154.936 200.206 154.711 200.201 154.436C200.196 154.161 198.997 152.647 197.535 151.073C196.073 149.498 194.877 147.942 194.877 147.612C194.877 147.282 194.22 146.553 193.42 145.993C192.619 145.432 190.691 142.34 189.135 139.122C187.724 136.205 186.528 134.169 186.297 134.256C186.275 134.267 186.26 134.299 186.258 134.352C186.204 135.573 188.733 141.334 190.973 145.09C193.062 148.594 192.004 148.99 188.832 145.893C186.933 144.038 186.246 142.88 186.484 141.932C186.876 140.372 186.318 139.335 184.783 138.77C182.327 137.866 177.406 119.685 177.553 112.055C177.58 110.654 177.395 108.854 177.141 108.055C176.69 106.637 176.667 106.634 176.158 107.936C175.752 108.976 175.634 108.756 175.625 106.936C175.609 103.597 176.638 94.8133 177.205 93.436C177.496 92.7289 177.389 92.27 176.932 92.27C176.517 92.27 175.995 93.176 175.773 94.2836C175.552 95.3913 175.108 96.4574 174.789 96.6547C174.47 96.8521 174.209 98.646 174.209 100.641C174.209 102.636 173.91 104.27 173.543 104.27C173.176 104.27 172.871 104.794 172.865 105.436C172.856 106.433 172.761 106.457 172.209 105.602C171.339 104.256 171.339 89.602 172.209 89.602C172.576 89.602 172.897 90.277 172.922 91.102C172.942 91.7705 172.959 92.1279 173.025 92.1879C173.101 92.2439 173.242 91.9335 173.516 91.27C173.818 90.5366 174.417 87.6123 174.848 84.7719C176.59 73.2654 182.056 59.954 188.689 51.059C191.126 47.7917 191.918 47.1045 192.229 47.9907C192.54 48.879 193.526 48.039 196.67 44.2016C199.902 40.2561 203.102 36.898 203.406 37.0297C203.407 37.0304 203.409 37.0307 203.41 37.0317L203.412 37.0337L203.414 37.0357C203.45 37.0833 203.391 37.2506 203.215 37.5494C202.793 38.2657 202.94 38.3873 203.82 38.0494C204.461 37.8038 205.402 37.6021 205.91 37.6021C206.419 37.6021 206.685 37.2132 206.502 36.7369C206.306 36.2259 207.27 35.2509 208.856 34.36C210.765 33.2868 211.55 33.1046 211.565 33.7271C211.579 34.3127 211.879 34.216 212.471 33.4361C212.958 32.7945 213.833 32.2701 214.416 32.2701C214.999 32.2701 215.716 31.8395 216.01 31.315C217.125 29.3234 227.434 25.8968 236.281 24.5767C237.238 24.4341 239.464 23.9936 241.229 23.5982C242.993 23.2028 245.285 23.0656 246.322 23.2935C247.532 23.5591 248.209 23.4362 248.209 22.9498C248.209 22.6807 248.347 22.5285 248.555 22.5219ZM315.365 137.602H315.367L315.369 137.604H315.371H315.373H315.375H315.377H315.379L315.381 137.606L315.383 137.608L315.385 137.61V137.612L315.387 137.614V137.616C315.488 137.865 313.447 141.086 312.315 142.436C311.777 143.078 311.069 143.602 310.741 143.602C310.413 143.602 311.272 142.252 312.651 140.602C314.03 138.952 315.251 137.602 315.365 137.602ZM187.531 141.586C187.406 141.59 187.273 141.649 187.143 141.78C186.923 142 186.976 142.561 187.264 143.026C187.684 143.706 187.843 143.705 188.068 143.028C188.32 142.273 187.977 141.572 187.531 141.586ZM193.158 149.915H193.16H193.162C193.232 149.915 193.501 150.1 193.93 150.456C194.693 151.088 195.566 151.38 195.869 151.104C196.173 150.828 196.219 151.166 195.971 151.854C195.723 152.542 195.861 153.516 196.279 154.02C196.691 154.516 196.873 154.794 196.844 154.866L196.842 154.868L196.84 154.87V154.872L196.838 154.874L196.836 154.876L196.834 154.878L196.832 154.88C196.831 154.88 196.827 154.882 196.826 154.882C196.685 154.921 195.876 154.302 194.517 153.085C193.69 152.344 193.186 151.847 193.175 151.77V151.768V151.766L193.177 151.764V151.762H193.179L193.181 151.76H193.183H193.185C193.208 151.763 193.263 151.794 193.35 151.852C194.458 152.602 194.477 151.508 193.377 150.255C193.223 150.079 193.148 149.972 193.146 149.932V149.93V149.928V149.926V149.924L193.148 149.922L193.15 149.92V149.918L193.152 149.916H193.154C193.155 149.916 193.157 149.916 193.158 149.915ZM202.705 162.223C203.54 162.187 205.336 163.157 207.438 165.016C209.145 166.527 214.892 169.969 220.209 172.665C229.297 177.272 230.997 178.824 224.209 176.315C217.847 173.963 204.877 166.224 204.877 164.78C204.877 164.456 204.542 164.397 204.135 164.649C203.727 164.901 203.133 164.693 202.812 164.188C201.989 162.887 202.056 162.251 202.705 162.223ZM353.543 220.936V232.936C353.543 239.536 353.279 244.936 352.957 244.936C352.635 244.936 351.981 244.464 351.502 243.887C351.023 243.31 349.411 242.185 347.92 241.387C345.606 240.148 344.133 239.936 337.861 239.936C330.905 239.936 330.278 240.053 326.072 242.123C320.647 244.794 316.208 249.499 314.111 254.801C311.934 260.307 311.943 271.588 314.131 277.123C317.009 284.406 322.581 289.776 329.457 291.893C336.242 293.982 345.133 292.852 351.043 289.151L353.543 287.586V289.928V292.27H360.543H367.543V256.602V220.936H360.543H353.543ZM23.9746 239.627C16.2474 239.575 7.91129 241.95 4.41992 245.704C2.36097 247.917 1.47116 250.654 1.41016 254.959C1.33618 260.177 2.48324 263.07 5.85742 266.18C9.02557 269.1 14.204 271.011 22.3594 272.266C30.4932 273.518 32.678 275.098 30.4336 278.104C29.7055 279.079 28.082 280.147 26.8262 280.479C23.6143 281.327 16.7932 279.965 11.6816 277.454C9.26063 276.264 7.26142 275.647 6.95508 275.997C6.66316 276.329 4.97965 278.516 3.21289 280.854L0 285.106L1.60547 286.354C4.04905 288.256 10.1522 291.046 13.877 291.965C18.9261 293.211 29.0868 293.133 33.7969 291.811C42.814 289.281 47.4328 280.771 44.8457 271.456C43.2084 265.56 37.9922 262.425 26.209 260.254C17.9984 258.742 15.543 257.671 15.543 255.602C15.543 254.172 17.5624 252.655 20.3086 252.02C22.7872 251.447 28.2545 252.602 32.4492 254.586C34.4052 255.512 36.2761 256.258 36.6074 256.243C37.6023 256.197 43.6718 247.57 43.332 246.684C42.8694 245.478 35.2499 241.582 31.2969 240.53C29.0583 239.934 26.5503 239.645 23.9746 239.627ZM149.732 239.696C148.425 239.63 146.956 239.644 145.234 239.719C139.948 239.95 138.449 240.297 134.676 242.155C125.213 246.813 120.221 256.377 121.059 268.245C121.891 280.047 128.299 288.812 138.4 291.969C144.81 293.972 154.411 292.744 159.699 289.245L162.209 287.584V289.926V292.27H169.209H176.209V266.27V240.27H169.209H162.209V242.581V244.891L159.377 243.002C156.098 240.817 153.654 239.894 149.732 239.696ZM215.631 239.704C204.696 239.82 194.368 246.058 189.68 256.1C188.122 259.437 187.894 260.76 187.918 266.27C187.942 271.715 188.199 273.156 189.758 276.551C194.017 285.826 201.278 291.364 211.209 292.915C222.833 294.729 235.567 288.927 239.656 279.952C240.635 277.804 240.524 277.716 233.736 275.241L228.898 273.475L225.904 276.467C219.513 282.859 209.228 281.977 204.072 274.596C199.222 267.653 202.348 256.395 210.021 253.171C215.261 250.969 221.682 252.54 226.252 257.143L228.543 259.452L234.674 257.092L240.805 254.731L239.896 253.001C237.011 247.497 230.187 242.43 223.236 240.632C220.71 239.978 218.154 239.677 215.631 239.704ZM88.2012 239.725C81.7611 239.417 77.4353 240.445 73.2754 243.268L70.9531 244.843L70.748 242.723L70.543 240.602L63.709 240.413L56.877 240.223V274.602V308.983L63.709 308.792L70.543 308.602L70.7266 298.137L70.9102 287.671L73.7266 289.538C77.72 292.186 80.3919 292.936 85.8535 292.936C99.829 292.936 109.446 284.741 111.576 271.014C113.462 258.859 108.007 246.879 98.4434 242.171C94.7499 240.352 93.1092 239.96 88.2012 239.725ZM408.984 239.764C407.632 239.691 406.257 239.717 404.869 239.846C393.526 240.901 384.771 246.549 380.666 255.462C379.443 258.117 379.221 259.788 379.236 266.27C379.252 273.123 379.441 274.338 381.008 277.721C383.073 282.182 387.382 287.072 391.172 289.257C393.843 290.796 399.988 292.682 403.877 293.157C408.888 293.769 416.053 292.38 421.119 289.813C424.266 288.219 430.877 282.633 430.877 281.569C430.877 281.285 428.466 279.663 425.52 277.964L420.162 274.872L417.387 277.247C415.861 278.553 413.398 279.951 411.912 280.352C405.884 281.982 397.257 279.351 394.377 275.005C393.551 273.759 392.877 272.483 392.877 272.171C392.877 271.858 402.061 271.602 413.287 271.602H433.697L433.434 265.05C433.203 259.301 432.906 257.958 431.004 254.094C426.832 245.62 418.453 240.276 408.984 239.764ZM276.709 239.823C266.081 239.865 255.468 245.199 251.156 253.708C247.957 260.022 247.647 270.929 250.477 277.663C253.896 285.8 262.087 291.554 272.209 292.928C281.938 294.25 291.127 291.235 297.543 284.614C301.007 281.04 301.19 281.393 293.695 277.196L289.516 274.856L286.73 277.239C283.315 280.162 279.685 281.213 274.928 280.655C268.563 279.908 264.463 277.44 262.943 273.444L262.25 271.622L282.73 271.446L303.209 271.27L303.424 268.649C303.746 264.704 302.359 257.697 300.488 253.817C298.227 249.126 292.003 243.453 287.109 241.622C283.796 240.382 280.252 239.809 276.709 239.823ZM471.91 239.936C457.46 239.936 446.503 246.981 443.553 258.169C442.488 262.204 442.642 271.278 443.842 275.298C446.601 284.542 455.374 291.457 466.209 292.928C472.686 293.808 479.414 292.703 485.09 289.827C488.721 287.987 494.44 282.626 494.043 281.434C493.9 281.007 491.6 279.368 488.932 277.792L484.08 274.927L481.979 276.702C478.971 279.241 474.968 280.904 471.83 280.921C468.698 280.938 462.703 279.289 460.395 277.776C458.845 276.761 456.877 273.697 456.877 272.302C456.877 271.828 463.487 271.602 477.307 271.602H497.736L497.367 265.102C496.743 254.124 492.242 247.003 483.063 242.466C478.279 240.101 477.552 239.936 471.91 239.936ZM339.928 251.774C345.925 251.936 351.901 255.652 353.494 261.389C355.785 269.639 351.31 278.792 344.416 279.957C343.019 280.194 341.427 280.472 340.877 280.577C337.957 281.134 332.287 278.884 329.74 276.157C324.219 270.244 325.512 258.289 332.146 253.899C334.471 252.361 337.202 251.7 339.928 251.774ZM148.486 251.979C153.901 252.027 156.328 253.043 159.408 256.551C165.289 263.249 163.26 275.356 155.611 279.211C150.406 281.835 142.379 280.41 138.408 276.157C132.778 270.127 134.118 258.617 141.008 253.844C143.428 252.167 144.337 251.942 148.486 251.979ZM83.8555 252.02C88.9665 252.02 92.9672 254.061 95.8184 258.122C97.5909 260.646 97.8222 261.526 97.834 265.788C97.8515 272.135 95.3799 276.919 90.8672 279.268C88.4643 280.519 83.6408 280.956 80.5508 280.204C77.119 279.368 74.163 277.319 72.1484 274.375C70.7526 272.336 70.543 271.265 70.543 266.206C70.543 260.809 70.6894 260.174 72.543 257.551C75.2572 253.71 78.7154 252.02 83.8555 252.02ZM406.35 252.194C410.73 252.262 415.039 254.172 417.219 257.891C418.13 259.446 418.877 260.918 418.877 261.161C418.877 261.403 413.176 261.602 406.209 261.602C392.226 261.602 392.308 261.633 395.062 257.545C397.52 253.899 401.97 252.125 406.35 252.194ZM275.289 252.213C279.716 252.126 284.226 253.89 286.689 257.545C287.525 258.786 288.209 260.206 288.209 260.702C288.209 261.427 285.742 261.602 275.543 261.602C268.576 261.602 262.881 261.377 262.887 261.102C262.893 260.827 263.568 259.424 264.387 257.985C266.519 254.238 270.862 252.301 275.289 252.213ZM470.133 252.291C472.39 252.363 474.633 252.797 476.152 253.573C479.161 255.107 482.209 258.504 482.209 260.321C482.209 261.541 481.596 261.602 469.559 261.602H456.908L457.602 259.77C458.551 257.256 461.443 254.289 464.022 253.186C465.603 252.509 467.875 252.22 470.133 252.291Z" fill="#FED24D"/>
</svg>
